<svg width="300" height="230" viewBox="0 0 300 230" fill="none" xmlns="http://www.w3.org/2000/svg">
<path d="M296.867 31.3151L284.968 19.4153L174.738 129.645C160.959 143.424 137.786 143.424 124.007 129.645L13.7777 20.0416L1.87793 31.9414L83.9238 113.987L1.87793 196.033L13.7777 207.933L95.8236 125.887L112.108 142.171C122.128 152.192 135.281 157.829 149.06 157.829C162.838 157.829 175.991 152.192 186.012 142.171L202.295 125.887L284.341 207.933L296.241 196.033L214.195 113.987L296.867 31.3151Z" fill="#A7A7A7"/>
<path d="M273.695 229.227H26.3048C11.8998 229.227 0 217.328 0 202.923V26.3048C0 11.8998 11.8998 0 26.3048 0H273.695C288.1 0 300 11.8998 300 26.3048V202.923C300 217.328 288.1 229.227 273.695 229.227ZM25.6785 16.9102C20.668 16.9102 16.9103 20.668 16.9103 25.6784V202.296C16.9103 207.307 20.668 211.065 25.6785 211.065H273.069C278.079 211.065 281.837 207.307 281.837 202.296V25.6784C281.837 20.668 278.079 16.9102 273.069 16.9102H25.6785Z" fill="#A7A7A7"/>
</svg>
