<svg width="40" height="40" viewBox="0 0 40 40" fill="none" xmlns="http://www.w3.org/2000/svg">
<path d="M20 0C8.97143 0 0 8.97388 0 20C0 31.0261 8.97143 40 20 40C31.0286 40 40 31.0253 40 20C40 8.97469 31.0294 0 20 0ZM20 0.142041C30.9469 0.142041 39.8571 9.05061 39.8571 19.9976C39.8571 20.1102 39.8522 20.2253 39.8506 20.338C39.6051 19.8577 39.2444 19.4457 38.8008 19.1388C37.7649 18.391 37.2245 15.7878 37.1216 14.7878L37.1143 14.7763C37.1845 15.4824 37.2196 16.2131 37.2196 16.9804C37.2099 18.5079 37.092 20.0328 36.8669 21.5437C36.1714 26.4253 33.8114 31.6531 32.4163 33.2563C32.4163 33.2563 32.3347 33.3502 32.3273 33.3518L32.0155 33.6784L32.0008 33.6882C28.6114 36.4596 25.4939 37.4433 20.0898 37.4433H20.0531C14.6473 37.4433 11.5273 36.458 8.13469 33.6882L8.12163 33.6784C8.12163 33.6784 7.8 33.3412 7.8 33.3388L7.71837 33.2571C6.33061 31.6555 3.96327 26.4278 3.26612 21.5429C3.04203 20.032 2.92609 18.507 2.91918 16.9796C2.91918 16.2612 2.97061 15.5918 3.03592 14.9322L3.01551 15.0343C2.91673 16.0343 2.61388 17.7143 1.50857 18.3673C0.92 18.7176 0.404898 19.3233 0.147755 20.2539C0.147755 20.1722 0.142041 20.0849 0.142041 20C0.142041 9.04898 9.0498 0.140408 20 0.140408V0.142041Z" fill="#FBFBFB"/>
<path d="M3.87269 22.0612C3.88086 22.111 3.88984 22.164 3.898 22.2163C3.93229 22.4016 3.96494 22.5894 4.00331 22.7738C4.00595 22.7868 4.00786 22.7999 4.00902 22.813C4.0482 23.0089 4.09065 23.204 4.13473 23.4008C4.14943 23.4522 4.16167 23.5118 4.17147 23.564C4.21147 23.7355 4.2531 23.9085 4.29555 24.0808C4.30371 24.1061 4.30616 24.1289 4.31269 24.1559C4.36086 24.3469 4.41147 24.5371 4.46127 24.7273C4.47841 24.7861 4.49229 24.8424 4.51024 24.9012C4.55433 25.0645 4.59922 25.2196 4.64576 25.382C4.658 25.4155 4.66616 25.4489 4.67596 25.4832C4.73065 25.6653 4.7878 25.8481 4.84412 26.0294C4.86208 26.0898 4.88249 26.1485 4.89882 26.204C4.9478 26.351 4.99514 26.4955 5.04331 26.6375C5.05963 26.6816 5.07269 26.7265 5.08902 26.7681C5.14616 26.9445 5.20739 27.111 5.26943 27.2824C5.28902 27.3412 5.31024 27.4016 5.32984 27.4555C5.37963 27.5885 5.43106 27.7224 5.47678 27.853C5.49555 27.8987 5.51433 27.9469 5.53147 27.9926C5.59351 28.1559 5.65718 28.3191 5.72167 28.4734L5.78698 28.6367C5.83759 28.7583 5.88657 28.8816 5.94045 29.0016C5.95759 29.0473 5.97637 29.093 5.99678 29.1355C6.06208 29.2889 6.12739 29.4359 6.19106 29.582C6.21392 29.6318 6.23433 29.6775 6.25473 29.7257C6.30861 29.8408 6.36249 29.9502 6.4131 30.0653C6.43188 30.1012 6.45147 30.142 6.46861 30.1836C6.53473 30.3183 6.60167 30.4555 6.66943 30.5861C6.6882 30.6253 6.70698 30.662 6.72657 30.702C6.78127 30.8065 6.83514 30.9134 6.88984 31.0138C6.90208 31.0359 6.91269 31.0587 6.92494 31.08C7.64412 32.0024 8.38616 32.2408 8.61637 32.1085C8.80657 31.9951 8.88412 31.2645 8.73637 30.262C8.64902 29.9861 8.56412 29.7118 8.47841 29.4326C8.44984 29.3379 8.41882 29.2424 8.38861 29.1494C8.24984 28.6889 8.11678 28.2264 7.98943 27.7616C7.97392 27.7134 7.96331 27.6612 7.9478 27.6098C7.83678 27.2016 7.73065 26.7894 7.63024 26.3771C7.59678 26.2351 7.56167 26.0922 7.52739 25.9494C7.45229 25.6228 7.37473 25.302 7.30453 24.9779C7.2678 24.8147 7.23106 24.6514 7.19841 24.484C7.12984 24.1755 7.0678 23.8653 7.00657 23.56C6.9731 23.3926 6.94045 23.2285 6.91106 23.0645C6.84902 22.7379 6.79025 22.4187 6.73555 22.0979C6.70943 21.9575 6.68412 21.8114 6.65882 21.6694C6.58371 21.2122 6.51024 20.7534 6.44657 20.3012C5.79351 15.8114 5.82045 11.782 6.78453 9.32241C6.88177 9.06869 7.0066 8.82642 7.15678 8.59997C7.21096 8.51987 7.27215 8.44474 7.33963 8.37548C9.32739 6.37793 14.7094 5.37874 20.0972 5.37874C25.4849 5.37874 30.8596 6.37793 32.8515 8.37058C32.9176 8.44039 32.9779 8.51547 33.0319 8.59507C33.1804 8.82207 33.3044 9.06426 33.4017 9.31752C34.3682 11.7771 34.3935 15.8098 33.7396 20.2963C33.676 20.7485 33.6058 21.2073 33.5282 21.6645C33.5037 21.8138 33.4768 21.9632 33.4466 22.1143C33.3935 22.4261 33.338 22.7387 33.2776 23.0538C33.2449 23.2294 33.2107 23.4089 33.1739 23.5845C33.1151 23.8767 33.0572 24.1673 32.9935 24.4563C32.956 24.6416 32.9168 24.8245 32.8735 25.0089C32.8107 25.3012 32.7413 25.5934 32.6735 25.8865C32.6327 26.062 32.5919 26.2383 32.547 26.4138C32.4653 26.7404 32.3796 27.0669 32.2923 27.3934C32.2564 27.5249 32.2229 27.6645 32.1845 27.8016C32.0637 28.2498 31.9396 28.6955 31.8017 29.1355C31.7584 29.2808 31.7143 29.4204 31.6678 29.5608C31.5862 29.8057 31.5151 30.0571 31.436 30.302C31.2972 31.2816 31.3756 31.9975 31.5666 32.1085C31.7805 32.2343 32.4645 32.0204 33.1527 31.2065C33.3862 30.7722 33.6278 30.2922 33.8678 29.7673C33.8678 29.7632 33.8678 29.7583 33.8719 29.7551C34.0302 29.4095 34.1862 29.0492 34.3396 28.6743C34.3472 28.6602 34.3535 28.6454 34.3584 28.6302C34.4343 28.4473 34.5054 28.2636 34.5805 28.0726C34.5805 28.0726 34.5805 28.0726 34.5805 28.0685C34.6523 27.8792 34.7266 27.6873 34.796 27.4889C34.8041 27.4661 34.8156 27.4391 34.8237 27.4171C34.8915 27.2294 34.9568 27.0392 35.027 26.8506C35.027 26.844 35.027 26.8359 35.027 26.8277C35.0939 26.6326 35.1592 26.4367 35.2237 26.2383C35.2351 26.2024 35.2466 26.1649 35.2572 26.1289C35.3184 25.9428 35.378 25.7534 35.4343 25.564C35.4388 25.5519 35.4421 25.5393 35.4441 25.5265C35.5053 25.3281 35.5617 25.1289 35.618 24.9289C35.6278 24.884 35.6392 24.8432 35.6523 24.8016C35.7037 24.6081 35.7543 24.4138 35.8041 24.2212C35.8082 24.2101 35.8109 24.1986 35.8123 24.1869C35.8637 23.9877 35.9086 23.7861 35.9576 23.5836C35.9674 23.5355 35.9813 23.4881 35.9911 23.4416C36.0351 23.2457 36.0727 23.0465 36.1135 22.8555C36.116 22.8456 36.1195 22.836 36.1241 22.8269C36.1617 22.6261 36.1984 22.4245 36.2343 22.222C36.2425 22.1747 36.2515 22.1249 36.2596 22.0767C36.2939 21.8726 36.3266 21.6685 36.3535 21.4685C36.5767 19.9822 36.6934 18.4817 36.7029 16.9787C36.7029 14.4302 36.3029 12.2522 35.4784 10.3208C34.8597 8.872 33.8107 7.64834 32.4735 6.81548C29.1249 4.70854 25.3217 3.47099 21.4637 3.23588C21.0123 3.20895 20.5478 3.19507 20.089 3.19507H20.0531C19.5911 3.19507 19.1315 3.20895 18.6784 3.23588C14.8278 3.47099 11.018 4.70527 7.66453 6.81221C6.32667 7.64454 5.27729 8.86834 4.65882 10.3175C3.83433 12.2489 3.43433 14.4269 3.43433 16.9755C3.44508 18.4784 3.56156 19.9787 3.7829 21.4653C3.80739 21.6645 3.83922 21.8636 3.87269 22.0612Z" fill="#F5F5F5"/>
<path d="M26.5926 34.9755C26.5845 34.9778 26.5763 34.9797 26.5681 34.9812C26.3999 35.0351 26.2301 35.08 26.0587 35.1224C26.0309 35.1314 25.9999 35.1404 25.9689 35.1477C25.7703 35.1978 25.5713 35.2421 25.3722 35.2808C23.6395 35.607 21.8797 35.7674 20.1167 35.76H20.0685C18.3054 35.7677 16.5456 35.6072 14.813 35.2808C14.6293 35.2457 14.4481 35.204 14.2644 35.1624C14.0807 35.1208 13.9232 35.0726 13.7534 35.0204C13.7415 35.0192 13.7297 35.0167 13.7183 35.013C12.7681 34.7828 11.5191 34.48 11.4693 34.6669C11.4073 34.8914 12.0832 35.4751 12.7028 35.8359C12.7067 35.84 12.7114 35.8434 12.7167 35.8457C12.7428 35.8538 12.7681 35.8653 12.7942 35.8718C12.835 35.8889 12.8758 35.902 12.9167 35.9183C13.1085 35.9893 13.3011 36.0555 13.4971 36.1191C13.5224 36.124 13.5493 36.1314 13.5787 36.1387C13.7624 36.1967 13.9493 36.2489 14.1379 36.302C14.1771 36.3126 14.2154 36.3224 14.2546 36.3347C14.4513 36.3844 14.6538 36.4318 14.8595 36.4742C14.9109 36.4832 14.9615 36.4971 15.0113 36.5053C15.2179 36.5477 15.4277 36.5869 15.6415 36.6195C15.6881 36.631 15.7354 36.6351 15.7852 36.6432C16.0081 36.6808 16.2342 36.7118 16.4693 36.7412C16.4889 36.7412 16.5093 36.7477 16.5322 36.7477C16.7591 36.7771 16.9909 36.7991 17.2277 36.8204C17.2685 36.8244 17.3093 36.8285 17.3542 36.831C17.5991 36.8514 17.844 36.8685 18.1003 36.8808C18.1542 36.8849 18.2032 36.8889 18.2587 36.8889C18.515 36.9044 18.7762 36.9134 19.0464 36.9208H19.1779C19.4669 36.9273 19.7534 36.9314 20.0554 36.9314H20.0913C20.3893 36.9314 20.6783 36.9314 20.9624 36.9208H21.102C21.3689 36.9134 21.6309 36.9044 21.8897 36.8889C21.9428 36.8889 21.9958 36.8849 22.0489 36.8808C22.3028 36.8661 22.5526 36.8514 22.7958 36.831C22.8367 36.831 22.8775 36.822 22.9167 36.8204C23.1477 36.7991 23.3738 36.7771 23.595 36.7518C23.6236 36.7477 23.6562 36.7412 23.6864 36.7395C23.9142 36.7118 24.1362 36.6791 24.3558 36.6432C24.4113 36.6351 24.4652 36.6293 24.5191 36.6179C24.7289 36.5844 24.9346 36.5477 25.1346 36.5044C25.1918 36.493 25.2464 36.4808 25.2979 36.471C25.4987 36.4261 25.7003 36.3787 25.8954 36.3289C25.9379 36.3208 25.9771 36.3077 26.0179 36.2955C26.1918 36.2498 26.3599 36.1991 26.5305 36.1493C26.5787 36.1355 26.6228 36.1232 26.6701 36.1085C26.8522 36.0481 27.0318 35.9877 27.2105 35.9232C27.2669 35.902 27.3232 35.8816 27.3738 35.8604C27.4038 35.8513 27.4333 35.8404 27.462 35.8277C27.4669 35.8277 27.4693 35.8228 27.4758 35.8204C28.0873 35.4555 28.7387 34.8889 28.675 34.6718C28.6301 34.4898 27.5167 34.7526 26.5926 34.9755Z" fill="white"/>
<path d="M32.6596 9.79592C32.5746 9.57587 32.4651 9.36611 32.3331 9.17061C32.293 9.10875 32.2483 9.05008 32.1992 8.9951C30.5053 7.29796 25.7543 6.19836 20.0972 6.19836C14.44 6.19836 9.68085 7.29796 7.98207 8.99265C7.93469 9.0488 7.89028 9.10738 7.84901 9.16816C7.71692 9.36361 7.60738 9.57338 7.52248 9.79347C6.6637 11.9812 6.55513 15.6963 7.21636 20.2547C7.79758 24.2841 8.7935 28.2939 10.0204 31.5486C10.2376 32.1347 10.4351 32.3649 10.9233 32.7404C12.1561 33.6072 13.56 34.2003 15.0408 34.48C16.6991 34.7912 18.3831 34.9448 20.0702 34.9388H20.1168C21.8026 34.9457 23.4853 34.7924 25.1421 34.4808C26.624 34.2024 28.029 33.6091 29.2621 32.7412C29.7453 32.3624 29.9437 32.138 30.16 31.5502C31.3845 28.2988 32.3813 24.2849 32.9682 20.2555C33.6278 15.6963 33.5176 11.9812 32.6596 9.79592ZM7.34126 10.5853C7.41131 10.3266 7.49524 10.0718 7.59268 9.82204C7.59677 9.81143 7.5984 9.8049 7.60166 9.79755C7.43809 15.0381 7.66456 20.2836 8.27921 25.4906C8.10724 24.7483 7.94561 23.9954 7.79432 23.2318C7.39131 19.0283 7.24002 14.8044 7.34126 10.5829V10.5853ZM10.1445 31.6694C8.78697 23.4784 8.68738 14.2384 8.85472 8.41224C8.93636 8.36734 9.01309 8.31836 9.09473 8.27428C8.91921 14.2245 9.01717 23.8441 10.4825 32.2416C10.3395 32.0696 10.2253 31.8755 10.1445 31.6669V31.6694ZM29.8564 7.69796C29.8849 9.04898 29.9045 10.5706 29.9053 12.2041H29.671C29.671 10.5363 29.6498 8.98367 29.6213 7.60979L29.8564 7.69796ZM29.4164 22.662C29.5347 20.3763 29.6049 18.0906 29.6441 15.9118C29.6645 15.1935 29.6784 14.7249 29.6841 14.6326H29.8931C29.8482 19.0473 29.6645 24.0024 29.2213 28.5355C29.2262 28.3437 29.3217 25.6408 29.4164 22.662ZM27.3886 33.7143C27.307 33.7486 27.2253 33.7845 27.1437 33.8171C27.3576 32.2261 27.5339 30.4433 27.6743 28.5445H27.9094C27.7706 30.3984 27.5976 32.1478 27.3886 33.7143ZM23.5976 34.6498C23.5217 34.6604 23.4425 34.6669 23.3657 34.6792C23.4474 32.969 23.5127 30.8702 23.5641 28.5445H23.7919C23.7404 30.8571 23.6776 32.9453 23.5976 34.6482V34.6498ZM16.8164 34.6833C16.7404 34.6743 16.6645 34.6653 16.5862 34.6547C16.5045 32.9494 16.4425 30.858 16.3919 28.5445H16.6204C16.6686 30.871 16.7372 32.9722 16.8164 34.6816V34.6833ZM14.9649 12.2343H14.7355C14.7355 10.2473 14.7355 8.35102 14.7429 6.63428C14.8196 6.62367 14.8947 6.61387 14.9706 6.60163C14.9641 8.32653 14.9608 10.2318 14.9649 12.231V12.2343ZM10.5151 12.209H10.2784C10.2784 10.5763 10.3004 9.05387 10.3306 7.70285C10.4041 7.67428 10.4849 7.64408 10.5641 7.61469C10.5339 8.98367 10.5168 10.5363 10.5151 12.2057V12.209ZM13.2702 6.88245C13.3478 6.86612 13.4221 6.85143 13.5004 6.83918C13.4841 8.47183 13.4759 10.298 13.4808 12.2269H13.2523C13.2466 10.3102 13.2555 8.50122 13.2702 6.87918V6.88245ZM13.489 14.3575H12.5478V19.2653H14.2572V21.0702H12.5478L12.5723 28.2237H12.4906H12.258L11.1747 28.2139H10.9372H10.7233L10.5935 23.7551L10.2808 12.8375L10.2702 12.5224H10.2784L10.5151 12.5265L11.7657 12.5339H11.9976L13.2523 12.5404H13.4808L14.738 12.5478H14.7584V14.351H13.489V14.3575ZM13.5413 18.9469H13.3102C13.2866 17.5078 13.2711 16.0775 13.2621 14.6784H13.4931C13.5013 16.0743 13.5192 17.5045 13.5413 18.9437V18.9469ZM17.7045 6.34204C17.7772 6.33714 17.8515 6.33306 17.9249 6.32979C17.9249 8.16326 17.9249 10.1453 17.9331 12.2024H17.7119C17.7053 10.1486 17.7029 8.16816 17.7029 6.33877L17.7045 6.34204ZM19.4302 6.27918L19.4441 12.2212H19.2221L19.209 6.28326C19.2808 6.27836 19.3535 6.27836 19.4286 6.27592L19.4302 6.27918ZM22.2596 6.32979C22.3364 6.32979 22.4123 6.33714 22.4849 6.34204C22.4849 8.17551 22.4849 10.1649 22.4776 12.2196H22.2523C22.2547 10.1567 22.258 8.16326 22.258 6.32653L22.2596 6.32979ZM25.4433 6.63265C25.4523 8.34694 25.4564 10.2384 25.4515 12.2212H25.2213C25.2262 10.2261 25.2213 8.32081 25.2147 6.59755C25.2882 6.61224 25.3625 6.61877 25.4392 6.62938L25.4433 6.63265ZM27.9331 28.2278H27.04L27.1119 14.3502V14.3151H25.4294V12.5396H25.4457H26.7021H26.9347L28.1894 12.5298H28.4237L29.6743 12.5241H29.9086H31.0351V14.32H29.378L28.9135 28.2245L27.9331 28.2278ZM23.8335 26.729C23.8172 25.2286 23.7764 22.9739 23.6768 21.7388C23.6564 21.4939 23.6368 21.2906 23.6106 21.1412V21.1102H21.169L21.1543 28.2204H19.3527L19.2319 17.8229L19.1698 12.5396H23.747C23.8213 12.6824 23.889 12.8294 23.96 12.978C24.5453 14.2629 24.9339 15.7886 25.1886 17.3959C25.2702 17.9314 25.3421 18.4767 25.3992 19.0286C25.7143 22.049 25.6506 25.1673 25.6082 27.4367C25.6 27.7151 25.5951 27.9763 25.5902 28.2237H23.8384V28.2196C23.8384 28.2024 23.8376 27.5918 23.8294 26.7257L23.8335 26.729ZM23.9657 12.2563L23.9486 12.2212H23.7372C23.7421 10.1804 23.7421 8.22612 23.7372 6.4351C23.8139 6.44245 23.8882 6.44734 23.9625 6.45632C23.9666 8.24489 23.9666 10.209 23.9617 12.2531L23.9657 12.2563ZM16.6188 28.2278H15.9657L15.6637 12.5249H16.4547H17.716H17.9241L17.8817 28.2294H16.6139L16.6188 28.2278ZM25.4237 16.8555C25.3576 16.4857 25.2841 16.1208 25.2025 15.7665C25.2025 15.3886 25.2025 15.0098 25.2098 14.6326H25.4376C25.4327 15.369 25.4294 16.1102 25.4237 16.8555ZM28.4237 12.2098H28.1927C28.1927 10.3886 28.1796 8.67918 28.1568 7.16163C28.2384 7.18122 28.3135 7.20245 28.3911 7.22449C28.4082 8.72489 28.4237 10.4106 28.4237 12.2098ZM26.938 12.2139H26.707C26.707 10.2906 26.707 8.4653 26.689 6.83592C26.7649 6.84816 26.8433 6.86285 26.9168 6.87918C26.9298 8.49959 26.9388 10.3069 26.9347 12.2139H26.938ZM20.9788 6.28L20.9666 12.218H20.7445L20.76 6.27592C20.8319 6.27836 20.9029 6.27836 20.9755 6.28H20.9788ZM16.4531 12.2024H16.2253C16.2196 10.1763 16.2196 8.22857 16.2253 6.45143C16.2996 6.44245 16.3731 6.43755 16.4482 6.4302C16.4425 8.21632 16.4433 10.1649 16.4498 12.2024H16.4531ZM12.0008 12.2139L11.7674 12.2098C11.7674 10.4139 11.7788 8.72489 11.8017 7.22449C11.8759 7.20245 11.9568 7.18122 12.0359 7.16163C12.009 8.68081 11.9968 10.3918 11.9976 12.2139H12.0008ZM10.9641 28.5273H11.1984C11.3617 30.16 11.5551 31.7298 11.7878 33.2049C11.7004 33.1518 11.6147 33.1037 11.529 33.0506C11.3053 31.6229 11.1176 30.0996 10.9641 28.5273ZM12.2776 28.5412H12.5119C12.6531 30.44 12.827 32.2229 13.0449 33.8139C12.9633 33.7812 12.8817 33.7453 12.7951 33.7078C12.587 32.1478 12.4155 30.3967 12.2776 28.5412ZM14.0425 34.1624C13.6817 30.751 13.4711 26.1388 13.3617 21.3902H13.5919C13.7062 26.1682 13.9184 30.8114 14.2833 34.2278C14.2057 34.2041 14.1257 34.1829 14.0425 34.1624ZM15.3053 34.4563C14.9331 29.582 14.7853 21.7812 14.747 14.6751H14.9747C15.0172 21.8041 15.1649 29.6302 15.5388 34.498C15.458 34.4841 15.3837 34.4694 15.3053 34.4563ZM17.8049 28.5429H18.0302C18.058 30.9208 18.0898 33.0637 18.1282 34.8016C18.0515 34.7975 17.9772 34.7902 17.9013 34.7829C17.8637 33.0482 17.8311 30.9118 17.8049 28.5429ZM19.2694 34.8571L19.2572 28.538H19.48L19.4955 34.8637L19.2694 34.8571ZM20.7029 28.538H20.9298L20.9135 34.8506L20.6874 34.8563L20.7029 28.538ZM22.2106 21.4261H22.4392C22.4074 26.569 22.3576 31.4196 22.2825 34.782C22.2082 34.7861 22.1323 34.7951 22.0564 34.7967C22.1323 31.4367 22.1804 26.5714 22.2106 21.4253V21.4261ZM24.9559 28.5437H25.1886C25.107 30.7624 25.0074 32.7796 24.8792 34.4539C24.8025 34.4686 24.7233 34.4808 24.6466 34.4931C24.7755 32.8163 24.8768 30.7755 24.9559 28.5429V28.5437ZM26.6915 14.6335H26.7911C26.7911 14.9796 26.7608 20.3788 26.7413 24.3478C26.6172 28.0212 26.4278 31.4686 26.1396 34.1665C26.058 34.1869 25.9804 34.209 25.8988 34.2318C26.44 29.1959 26.6433 21.5061 26.6915 14.6326V14.6335ZM28.9829 28.5437H29.2196C29.0653 30.1126 28.8784 31.6302 28.6588 33.0547C28.5706 33.1078 28.4825 33.1559 28.3943 33.209C28.6294 31.7347 28.8213 30.1682 28.9829 28.5429V28.5437ZM31.1429 14.6335H31.351V12.1992H31.1535C31.1462 10.769 31.1249 9.44734 31.089 8.27183C31.1706 8.31592 31.2523 8.36489 31.3282 8.40979C31.4996 14.2375 31.3976 23.4767 30.0384 31.6686C29.9575 31.8749 29.8454 32.0676 29.7062 32.24C30.7168 26.4155 31.0768 20 31.1429 14.6326V14.6335ZM32.5821 9.79592C32.5851 9.80357 32.5892 9.81072 32.5943 9.81714C32.6903 10.0683 32.7734 10.3241 32.8433 10.5837C32.9433 14.8066 32.7915 19.0318 32.3886 23.2367C32.2411 23.9943 32.08 24.7415 31.9053 25.4784C32.5197 20.2749 32.746 15.0329 32.5821 9.79592Z" fill="#F5F5F5"/>
<path d="M23.2326 17.4066C23.013 16.1886 22.7559 15.2261 22.4677 14.538C22.4326 14.4506 22.3951 14.3657 22.3575 14.2857L22.3485 14.267H22.2449L21.1477 14.2563H21.1126L21.0669 19.3119V19.347H23.5159L23.511 19.3078C23.5102 19.2996 23.4187 18.4294 23.2326 17.4066ZM22.2424 14.8474C22.324 15.0474 22.3934 15.2653 22.4644 15.5078C22.4644 16.6776 22.4571 17.8563 22.4506 19.027H22.2244C22.2326 17.6327 22.2391 16.2343 22.2424 14.8474Z" fill="#F5F5F5"/>
</svg>
