<svg width="42" height="17" viewBox="0 0 42 17" fill="none" xmlns="http://www.w3.org/2000/svg">
<path fill-rule="evenodd" clip-rule="evenodd" d="M21.0092 1C9.95373 1 1 4.3935 1 8.5717C1 12.7499 9.94837 16.1312 21.0069 16.1312C32.0516 16.1319 41 12.7514 41 8.5717C41 4.39197 32.0516 1 21.0092 1ZM20.8302 15.5904C10.5319 15.5904 2.19159 12.4417 2.19159 8.54799C2.19159 4.6543 10.5319 1.49407 20.8302 1.49407C31.1285 1.49407 39.4574 4.65583 39.4574 8.54876C39.4574 12.4417 31.117 15.5912 20.8302 15.5912V15.5904Z" fill="url(#paint0_linear)" stroke="url(#paint1_linear)" stroke-width="1.04477" stroke-miterlimit="10"/>
<path fill-rule="evenodd" clip-rule="evenodd" d="M20.8303 15.615C31.1171 15.615 39.4574 12.4662 39.4574 8.57251C39.4574 4.67882 31.1171 1.51782 20.8303 1.51782C10.5312 1.51782 2.19165 4.67882 2.19165 8.57251C2.19165 12.4662 10.5282 15.615 20.8303 15.615Z" fill="#A9A9A9"/>
<path fill-rule="evenodd" clip-rule="evenodd" d="M20.8302 14.8937C10.9518 14.8937 2.92432 12.0815 2.92432 8.57248C2.92432 5.07497 10.9549 2.22449 20.8302 2.22449C30.7331 2.22449 38.7484 5.07267 38.7484 8.57248C38.7484 12.0723 30.7331 14.8937 20.8302 14.8937Z" fill="white"/>
<path fill-rule="evenodd" clip-rule="evenodd" d="M20.8302 14.4012C30.408 14.4012 38.184 11.7932 38.184 8.57251C38.184 5.36027 30.408 2.75989 20.8302 2.75989C11.2524 2.75989 3.4895 5.36333 3.4895 8.57174C3.4895 11.7924 11.2409 14.4004 20.8302 14.4004V14.4012Z" fill="#A9A9A9"/>
<path fill-rule="evenodd" clip-rule="evenodd" d="M30.685 10.1013C30.6368 10.1013 30.5527 10.2091 30.5045 10.2695C30.275 10.5105 29.3274 11.4933 28.8104 11.52C28.9182 11.52 28.6299 11.5789 28.6062 11.351C28.6058 11.3441 28.6058 11.3372 28.6062 11.3303C28.6062 11.1904 28.7171 11.0244 28.763 10.9303L31.3351 6.37585H30.3844L28.8341 8.99612C28.714 8.7552 28.5343 8.19077 27.8246 8.17853C26.6467 8.16629 26.1901 8.97165 25.3733 9.74106C25.1332 9.9575 24.8441 10.2458 24.1833 10.2458C23.8008 10.2458 23.4987 9.93379 23.5714 9.53685C23.6196 9.2248 23.7244 9.06802 23.9538 8.98389C24.0624 9.2967 24.2659 9.46419 24.6146 9.46419C25.0116 9.45272 25.2395 9.09172 25.2517 8.77968C25.2517 8.51505 25.0834 8.17853 24.6024 8.15482C24.158 8.13035 23.8215 8.33455 23.3412 8.88752C23.3412 8.88752 23.4605 8.07069 22.5595 8.0944C22.4609 8.08693 22.362 8.10346 22.2712 8.14259C21.7787 8.29555 21.1416 9.09172 20.6368 9.70434C20.6565 9.58534 20.6645 9.46468 20.6605 9.34411C20.6605 8.99612 20.5289 8.53876 20.288 8.29861C20.2692 8.28027 20.2465 8.26641 20.2217 8.25807C20.1968 8.24972 20.1703 8.24711 20.1442 8.25042C19.9875 8.25042 19.8551 8.38274 19.8551 8.58771C20.0267 8.78486 20.1246 9.03544 20.132 9.2967C20.132 9.58503 20.0479 10.1135 19.9278 10.3177C19.4689 11.0994 18.8945 11.6042 18.197 11.4955C17.8246 11.4114 17.5722 11.0504 17.6441 10.5105C17.6808 10.1977 17.8735 9.76476 18.0532 9.5009C18.2301 9.25143 18.4552 9.03993 18.7151 8.87888C18.9751 8.71783 19.2647 8.6105 19.5668 8.56324C19.5668 8.56324 19.6035 8.41945 19.5072 8.34679C19.4712 8.28713 19.423 8.21524 19.2548 8.21524C18.2337 8.25042 17.6081 8.98388 17.2479 9.70434C17.1156 9.9575 16.9228 10.3162 16.815 10.5456C16.815 10.5456 16.7194 10.8103 16.2743 11.146C16.0448 11.3265 15.9737 11.3869 15.9377 11.3755C15.9635 11.4927 16.0269 11.5982 16.1182 11.676C16.1542 11.6998 16.2712 11.6279 16.3224 11.6042C16.8876 11.2791 16.9473 11.1231 16.9473 11.1231C17.0674 11.7954 17.6441 12.1441 18.2811 12.1441C19.1592 12.1441 19.9637 11.351 20.4326 10.6542C20.7876 10.1439 21.177 9.65839 21.5982 9.20109C21.8628 8.94947 22.1389 8.78121 22.3072 8.78121C22.3425 8.78151 22.3773 8.7897 22.409 8.80518C22.4408 8.82065 22.4686 8.84303 22.4906 8.87066C22.5126 8.8983 22.5282 8.93049 22.5361 8.9649C22.5441 8.99931 22.5442 9.03506 22.5366 9.06954C22.5072 9.19833 22.4686 9.32485 22.4211 9.44813C22.3659 9.59098 22.3002 9.72953 22.2246 9.86266L20.9144 12.0852H21.9362C22.5251 10.9801 22.5481 10.9449 23.1263 9.88714C23.2792 10.4753 23.5943 10.704 24.0991 10.7154C24.532 10.7284 24.8318 10.704 25.1569 10.5357C25.0799 10.8357 25.1052 11.1527 25.2288 11.4367C25.3488 11.7128 25.5898 12.0615 26.1787 12.0738C26.8876 12.0738 27.5836 11.7617 27.7886 11.5804C27.8483 11.9292 28.0181 12.1105 28.4616 12.1105C29.3626 12.0852 30.1557 11.1606 30.6368 10.5594C30.7209 10.4516 30.8295 10.2711 30.8295 10.2237C30.828 10.1472 30.7324 10.1013 30.685 10.1013ZM28.3179 9.81295C28.3179 9.81295 27.9087 10.4975 27.488 10.9181C26.7431 11.676 26.2643 11.4229 26.155 11.3395C26.0456 11.2562 25.9622 10.9571 26.0104 10.6512C26.0464 10.3506 26.2743 9.84583 26.4907 9.58044C26.9228 9.05119 27.4521 8.69019 27.8735 8.73914C28.1932 8.77585 28.3324 8.98465 28.3324 9.24928C28.3262 9.43303 28.2756 9.61254 28.1848 9.77241L28.3179 9.81295Z" fill="white"/>
<path fill-rule="evenodd" clip-rule="evenodd" d="M26.0945 4.55869C26.0945 4.9411 24.7484 5.67609 23.6066 5.67609C21.8284 5.67609 19.9775 4.82255 19.124 4.63058C18.1985 4.41414 17.358 4.23364 16.6964 4.23364C14.3775 4.23364 13.3435 5.2279 13.3916 6.14569C13.4161 6.51815 13.7159 6.75754 14.161 6.67418C14.6414 6.59004 15.3144 6.13345 15.4827 5.73651C15.4889 5.72066 15.4982 5.70622 15.5101 5.694C15.5219 5.68179 15.5361 5.67206 15.5517 5.66537C15.5674 5.65868 15.5842 5.65517 15.6013 5.65504C15.6183 5.65491 15.6352 5.65816 15.6509 5.66461C15.6715 5.68189 15.687 5.70455 15.6955 5.73007C15.704 5.75559 15.7052 5.78297 15.6991 5.80917C15.6387 6.27723 14.9197 7.57743 13.6685 7.57743C12.971 7.57743 12.5022 6.92809 12.5144 6.291C12.5266 5.10171 13.7381 3.89941 16.7324 3.89941C17.369 3.90144 18.0043 3.95773 18.6314 4.06767C19.4368 4.21222 21.4436 4.54875 23.0781 4.57245C23.6784 4.57245 24.4479 4.59693 25.0727 4.50056C25.7335 4.39196 25.5897 4.36825 25.8536 4.36825C26.0945 4.36825 26.0945 4.46461 26.0945 4.56098V4.55869Z" fill="white"/>
<path fill-rule="evenodd" clip-rule="evenodd" d="M19.7731 6.4302C19.7709 6.33044 19.7335 6.23469 19.6674 6.15993C19.6013 6.08516 19.5109 6.03622 19.4122 6.02179C19.0297 5.96137 18.7238 6.27341 18.6917 6.79043C18.6955 6.88813 18.7114 6.98499 18.7391 7.07877C18.2219 7.16536 17.7007 7.2256 17.1774 7.25926C18.0661 5.75716 18.8837 5.2279 19.1238 5.01223C19.1906 4.9545 19.2511 4.8899 19.3043 4.81949C19.3158 4.794 19.3191 4.76553 19.3136 4.73809C19.3081 4.71065 19.2942 4.68563 19.2737 4.66653C19.2533 4.64555 19.2263 4.6323 19.1972 4.62905C19.181 4.6288 19.1648 4.6306 19.1491 4.63441C18.7789 4.71548 17.4665 5.72809 16.434 7.31127C16.1571 7.34722 15.0037 7.44358 14.619 7.87571C14.5847 7.92255 14.5602 7.9759 14.5471 8.03249C14.5709 8.1281 14.6427 8.17628 14.7514 8.09215C14.9915 7.81605 15.9651 7.70974 16.193 7.69597C14.7751 9.69062 13.4649 11.0008 12.2993 11.0008C12.1747 11.0101 12.0493 11.0019 11.9269 10.9763C11.458 10.8684 11.1819 10.3759 11.1819 9.93077C11.1819 9.34186 11.7464 8.70706 12.0714 8.58469C12.1793 8.53727 12.2244 8.47685 12.2244 8.43173C12.2244 8.35984 12.1762 8.31165 12.0439 8.31165C10.9265 8.58775 10.3253 9.50171 10.3376 10.2466C10.3621 11.4704 11.2867 12.1587 12.3322 12.1587C13.7984 12.1587 14.5441 11.5216 16.9349 7.65238C17.8848 7.55601 18.3536 7.49941 18.834 7.41223C18.834 7.41223 18.9785 7.76022 19.3387 7.76022C19.3992 7.77246 19.3869 7.71203 19.4229 7.58049C19.2699 7.56825 19.0863 7.45964 19.0863 7.32809C19.2182 7.26044 19.343 7.17973 19.4588 7.08718C19.6171 6.93804 19.7731 6.63746 19.7731 6.4302ZM19.0275 7.05506C18.9794 6.90248 18.9794 6.7388 19.0275 6.58622C19.0445 6.50679 19.0863 6.43485 19.147 6.3808C19.2076 6.32676 19.2839 6.29343 19.3647 6.28565C19.4481 6.27341 19.4848 6.35754 19.4963 6.4302C19.5208 6.57398 19.4007 6.79043 19.328 6.86232C19.1483 7.07035 19.0275 7.05811 19.0275 7.05811V7.05506Z" fill="white"/>
<defs>
<linearGradient id="paint0_linear" x1="1.00229" y1="8.56635" x2="41.0023" y2="8.56635" gradientUnits="userSpaceOnUse">
<stop stop-color="white"/>
<stop offset="0.22"/>
<stop offset="0.38" stop-color="#C1C0C0"/>
<stop offset="0.72" stop-color="#212121"/>
<stop offset="0.98" stop-color="#D9DEE2"/>
</linearGradient>
<linearGradient id="paint1_linear" x1="541.4" y1="4312.32" x2="21503" y2="4312.32" gradientUnits="userSpaceOnUse">
<stop stop-color="white"/>
<stop offset="0.22"/>
<stop offset="0.38" stop-color="#C1C0C0"/>
<stop offset="0.72" stop-color="#212121"/>
<stop offset="0.98" stop-color="#D9DEE2"/>
</linearGradient>
</defs>
</svg>
