<svg width="300" height="300" viewBox="0 0 300 300" fill="none" xmlns="http://www.w3.org/2000/svg">
<path d="M208.163 24.4898C226.025 24.4898 243.155 31.5853 255.785 44.2153C268.415 56.8453 275.51 73.9752 275.51 91.8367V208.163C275.51 226.025 268.415 243.155 255.785 255.785C243.155 268.415 226.025 275.51 208.163 275.51H91.8367C73.9752 275.51 56.8453 268.415 44.2153 255.785C31.5853 243.155 24.4898 226.025 24.4898 208.163V91.8367C24.4898 73.9752 31.5853 56.8453 44.2153 44.2153C56.8453 31.5853 73.9752 24.4898 91.8367 24.4898H208.163ZM208.163 0H91.8367C67.5025 0.0726762 44.1856 9.77164 26.9786 26.9786C9.77164 44.1856 0.0726762 67.5025 0 91.8367V208.163C0.0726762 232.498 9.77164 255.814 26.9786 273.021C44.1856 290.228 67.5025 299.927 91.8367 300H208.163C232.498 299.927 255.814 290.228 273.021 273.021C290.228 255.814 299.927 232.498 300 208.163V91.8367C299.927 67.5025 290.228 44.1856 273.021 26.9786C255.814 9.77164 232.498 0.0726762 208.163 0V0Z" fill="#A7A7A7"/>
<path d="M230.021 52.0408C226.552 52.0408 223.16 53.0695 220.276 54.9969C217.391 56.9243 215.143 59.6638 213.815 62.869C212.488 66.0742 212.14 69.601 212.817 73.0036C213.494 76.4062 215.164 79.5317 217.618 81.9848C220.071 84.4379 223.196 86.1085 226.599 86.7854C230.001 87.4622 233.528 87.1148 236.733 85.7872C239.939 84.4596 242.678 82.2113 244.605 79.3267C246.533 76.4422 247.562 73.0508 247.562 69.5816C247.562 67.2781 247.108 64.9972 246.226 62.869C245.345 60.7409 244.053 58.8072 242.424 57.1784C240.795 55.5495 238.862 54.2575 236.733 53.376C234.605 52.4945 232.324 52.0408 230.021 52.0408V52.0408Z" fill="#A7A7A7"/>
<path d="M150.827 96.3369C161.534 96.3308 172.002 99.5007 180.907 105.445C189.812 111.39 196.754 119.843 200.854 129.733C204.954 139.624 206.029 150.509 203.941 161.011C201.854 171.512 196.699 181.159 189.128 188.73C181.557 196.301 171.91 201.456 161.409 203.543C150.907 205.631 140.022 204.556 130.132 200.456C120.241 196.356 111.788 189.414 105.844 180.509C99.8988 171.604 96.729 161.136 96.735 150.429C96.7593 136.09 102.466 122.346 112.605 112.207C122.744 102.068 136.488 96.3612 150.827 96.3369V96.3369ZM150.827 71.8471C135.284 71.8773 120.099 76.5143 107.191 85.1721C94.2826 93.8299 84.2306 106.12 78.305 120.489C72.3793 134.858 70.8462 150.661 73.8992 165.901C76.9522 181.141 84.4544 195.134 95.4576 206.111C106.461 217.089 120.471 224.558 135.718 227.576C150.966 230.593 166.765 229.023 181.12 223.064C195.475 217.105 207.741 207.024 216.369 194.096C224.997 181.167 229.598 165.972 229.592 150.429C229.588 140.095 227.547 129.863 223.585 120.319C219.623 110.775 213.818 102.106 206.502 94.8071C199.187 87.5085 190.504 81.7239 180.95 77.7842C171.397 73.8445 161.161 71.827 150.827 71.8471V71.8471Z" fill="#A7A7A7"/>
</svg>
