<svg width="40" height="25" viewBox="0 0 40 25" fill="none" xmlns="http://www.w3.org/2000/svg">
<path d="M39.5774 9.83953C39.1434 8.52987 38.3824 7.34815 37.4575 6.33321C36.4028 5.17424 35.1367 4.21616 33.7882 3.42582C32.24 2.53109 30.5926 1.82027 28.8794 1.30782C26.9773 0.732624 25.0217 0.351618 23.0428 0.170637C22.032 0.0758715 21.0183 0.0284889 20.0018 0.0284889C17.9308 0.0249315 15.8644 0.225219 13.8326 0.626457C11.9814 0.988256 10.1743 1.5474 8.44234 2.29432C6.90289 2.95178 5.45641 3.80852 4.14 4.84256C3.00282 5.75136 1.9841 6.82789 1.23545 8.08068C0.543421 9.21416 0.132102 10.4965 0.035725 11.8211C-0.0376358 13.1384 0.218359 14.4532 0.780579 15.6467C1.37286 16.9251 2.26271 18.0481 3.28806 19.0062C4.46979 20.1111 5.8363 21.0085 7.27578 21.7401C8.91725 22.5631 10.6454 23.2004 12.4282 23.6402C14.3961 24.1315 16.4081 24.4255 18.4344 24.5177C20.5346 24.6186 22.6396 24.5132 24.7192 24.2031C26.6346 23.9259 28.5157 23.4495 30.3321 22.7816C31.9564 22.1901 33.5011 21.3997 34.9311 20.4286C36.163 19.5757 37.3002 18.5617 38.1929 17.3553C38.9918 16.2769 39.5907 15.0421 39.8418 13.7192C40.0844 12.4245 39.9935 11.0893 39.5774 9.83953ZM21.9511 1.73616C23.4744 1.81527 24.9873 2.03222 26.4714 2.38435C27.5498 2.65064 28.6453 3.00317 29.5911 3.59924C30.2895 4.03895 31.0258 4.71652 30.9671 5.61963C30.896 6.70375 29.7844 7.39553 28.9088 7.81439C27.6626 8.41142 26.2989 8.72414 24.9457 8.96105L24.7116 9.0018C24.4965 7.68362 24.1999 6.3806 23.6825 5.14391C23.2437 4.09391 22.6467 3.03823 21.7502 2.31233C21.4868 2.09911 21.2214 1.88778 20.957 1.67551L21.9511 1.73616ZM20.4728 4.67956C21.0783 4.86909 21.5209 5.38746 21.8374 5.91151C22.3738 6.80799 22.6533 7.8542 22.8362 8.87387C22.8552 8.98948 22.8751 9.10415 22.895 9.21881C21.2681 9.34593 19.6347 9.36651 18.0051 9.28041C17.7075 9.26335 17.4119 9.24061 17.1152 9.21881C17.2602 8.39151 17.4337 7.5699 17.7464 6.78714C18.0108 6.12378 18.3756 5.44053 18.949 4.99418C19.3782 4.65492 19.9336 4.50899 20.468 4.67577L20.4728 4.67956ZM9.13318 4.99513C9.29333 4.54215 9.63923 4.17636 10.0117 3.88448C10.5301 3.49846 11.1006 3.18771 11.7061 2.96147C13.4194 2.27916 15.2844 1.97591 17.1077 1.80913C17.753 1.74942 18.4012 1.71436 19.0485 1.6774L18.2903 2.282C17.925 2.57884 17.6012 2.92339 17.3275 3.30642C16.5504 4.37726 16.0643 5.65091 15.7241 6.92076C15.5403 7.60591 15.4152 8.30054 15.2929 8.99801C14.1557 8.79616 13.0233 8.56588 11.9354 8.16313C11.0825 7.84756 10.1822 7.43154 9.56626 6.74165C9.12939 6.26783 8.89342 5.62153 9.12844 4.99134L9.13318 4.99513ZM17.8895 22.9579C16.7732 22.8757 15.6632 22.7235 14.5661 22.502C13.5422 22.2953 12.5329 22.0215 11.545 21.6823C10.6225 21.3658 9.72456 20.9819 8.85836 20.5338C8.06459 20.1248 7.30691 19.6493 6.59347 19.1123C5.93798 18.6192 5.33466 18.0603 4.79294 17.4444C4.29432 16.8782 3.86867 16.2516 3.52593 15.5795C3.20666 14.9466 2.98311 14.2699 2.86257 13.5714C2.72501 12.7474 2.74334 11.9048 2.91659 11.0876C3.13429 10.106 3.54396 9.17719 4.122 8.35456C4.71346 7.51989 5.41725 6.77081 6.21347 6.12852L6.48734 5.90203C6.53282 6.11525 6.57263 6.33132 6.62854 6.5417C6.70371 6.81414 6.81595 7.07498 6.96211 7.31688C7.30516 7.89305 7.79984 8.36972 8.33147 8.77247C9.80222 9.88596 11.617 10.5323 13.3919 10.9682C13.8857 11.0895 14.3841 11.1795 14.8807 11.2828C14.9252 11.2923 15.0342 11.2932 15.0702 11.3226C15.0892 11.3378 15.0778 11.3273 15.0835 11.3586C15.0912 11.4733 15.089 11.5883 15.0769 11.7026C15.0626 12.4825 15.0664 13.2605 15.1167 14.0395C15.2417 15.985 15.5791 17.9647 16.3439 19.7681C16.6322 20.4769 17.0182 21.1419 17.4905 21.7439C17.8412 22.1779 18.2685 22.5248 18.6902 22.8858L18.8599 23.0308L17.8895 22.9579ZM19.2939 19.3303C18.9193 19.1251 18.5997 18.8325 18.3624 18.4774C18.046 18.018 17.7935 17.5178 17.6118 16.9905C17.1048 15.5956 16.9096 14.0869 16.8632 12.6095C16.8556 12.3972 16.8528 12.184 16.8528 11.9717C16.8528 11.9717 16.8433 11.6476 16.8442 11.5614C18.5957 11.7157 20.356 11.7417 22.1113 11.6391C22.4439 11.6173 22.7746 11.5889 23.1073 11.5614C23.1205 12.9412 23.0352 14.3229 22.7282 15.6723C22.5942 16.3045 22.398 16.9219 22.1425 17.5155C21.9436 17.9878 21.6708 18.4254 21.3342 18.8119C21.0773 19.1134 20.7391 19.3348 20.36 19.4497C20 19.5405 19.6192 19.4967 19.2892 19.3265L19.2939 19.3303ZM37.2121 13.0615C37.1466 13.7635 36.9741 14.4512 36.7004 15.1009C36.4101 15.7829 36.0313 16.4236 35.5736 17.0066C35.0778 17.6384 34.5154 18.2151 33.8963 18.7266C33.2225 19.2834 32.5011 19.78 31.7404 20.2106C30.9082 20.6825 30.0415 21.0905 29.1476 21.4312C28.1882 21.7979 27.2052 22.0993 26.2051 22.3334C25.1312 22.5854 24.0424 22.7693 22.9452 22.8839C22.6694 22.9124 22.3918 22.938 22.1151 22.9579L21.1532 23.0299C21.5095 22.7257 21.8867 22.4329 22.2127 22.0946C22.7099 21.5594 23.1208 20.95 23.4304 20.2883C24.2634 18.5826 24.6519 16.673 24.8329 14.7976C24.921 13.9107 24.9571 13.0193 24.941 12.1281L24.9324 11.6912C24.9195 11.5786 24.917 11.4651 24.9248 11.352C24.9305 11.3217 24.9192 11.3321 24.9381 11.3169C24.976 11.2866 25.0954 11.2875 25.1438 11.2781C25.374 11.2354 25.6053 11.1928 25.8346 11.1444C27.7062 10.755 29.6062 10.1522 31.2163 9.09562C31.8192 8.71763 32.3536 8.2402 32.797 7.68362C32.9775 7.45045 33.1284 7.1958 33.2462 6.9255C33.3381 6.69503 33.4082 6.45644 33.4556 6.21286C33.4784 6.10957 33.5011 6.00628 33.5248 5.90298C34.1967 6.47157 34.8515 7.04016 35.4106 7.72626C36.0731 8.516 36.5813 9.42315 36.9088 10.4005C37.1868 11.2584 37.2899 12.1632 37.2121 13.0615Z" fill="#F5F5F5"/>
<path d="M20.0085 24.5736C19.4842 24.5736 18.9592 24.561 18.4335 24.5357C16.4053 24.4436 14.3914 24.1493 12.4216 23.6572C10.6376 23.2168 8.9082 22.5788 7.26547 21.7553C5.81259 21.0343 4.46803 20.113 3.27112 19.0185C2.15763 17.9761 1.31232 16.8446 0.758893 15.6515C0.195798 14.4538 -0.0608103 13.1349 0.0121437 11.8135C0.110778 10.4853 0.523956 9.19964 1.21756 8.06267C1.91408 6.89895 2.893 5.80726 4.12874 4.81791C5.44673 3.7829 6.89477 2.92523 8.43582 2.26683C10.1694 1.51955 11.9781 0.960091 13.8308 0.598017C15.8642 0.196695 17.9321 -0.00359261 20.0047 4.87675e-05C21.0235 4.87675e-05 22.0479 0.0474319 23.0477 0.141249C25.0285 0.322018 26.9859 0.703025 28.8899 1.27843C30.6031 1.79133 32.2508 2.50179 33.7997 3.39548C35.2581 4.24837 36.4948 5.23014 37.4747 6.30762C38.4764 7.40879 39.1909 8.59241 39.6003 9.82435C40.0183 11.0776 40.1103 12.4167 39.8675 13.7154C39.6287 14.9786 39.0724 16.2058 38.2148 17.362C37.3837 18.4812 36.2845 19.5169 34.9473 20.4409C33.5156 21.4127 31.9693 22.204 30.3436 22.7968C28.5255 23.4654 26.6428 23.9434 24.726 24.223C23.1643 24.456 21.5875 24.5732 20.0085 24.5736ZM20.0019 0.0474313C17.9322 0.0439452 15.8671 0.243914 13.8365 0.644452C11.9873 1.006 10.1822 1.56451 8.45193 2.31042C6.91468 2.96718 5.47016 3.82262 4.15528 4.85487C2.92333 5.84043 1.9482 6.92833 1.25546 8.08731C0.566911 9.21796 0.156997 10.4961 0.0595262 11.8163C-0.012976 13.1299 0.241998 14.4409 0.801538 15.6316C1.35212 16.819 2.19458 17.9467 3.30428 18.9834C4.41398 20.0201 5.74259 20.927 7.28253 21.7136C8.9229 22.5341 10.6494 23.1698 12.4302 23.6089C14.3966 24.0994 16.407 24.393 18.4316 24.4855C20.5325 24.5892 22.6384 24.487 24.7193 24.1803C26.6328 23.9017 28.5123 23.4254 30.3275 22.7588C31.9494 22.1674 33.4922 21.378 34.9208 20.4087C36.2532 19.4876 37.3487 18.4556 38.176 17.3402C39.0289 16.1897 39.5832 14.971 39.8211 13.7135C40.0626 12.4228 39.9713 11.0918 39.5557 9.84615C39.1483 8.61989 38.4366 7.4429 37.4396 6.34647C36.4626 5.27278 35.2307 4.29575 33.776 3.44287C32.2292 2.54996 30.5838 1.84013 28.8729 1.32771C26.972 0.752746 25.0177 0.371742 23.0401 0.190527C22.0413 0.0948141 21.0235 0.0474313 20.0019 0.0474313ZM21.0822 23.0555L21.1372 23.0081C21.232 22.9313 21.3191 22.8546 21.4111 22.7788C21.685 22.5582 21.9469 22.3232 22.1957 22.0746C22.6925 21.542 23.1021 20.9343 23.4097 20.2741C24.1394 18.7834 24.5971 16.9905 24.8093 14.7919C24.897 13.9056 24.9331 13.0149 24.9174 12.1243L24.9088 11.6874C24.9088 11.6533 24.9088 11.6173 24.9022 11.5803C24.8923 11.502 24.8923 11.4227 24.9022 11.3444C24.9025 11.3393 24.9025 11.3343 24.9022 11.3292C24.9017 11.3226 24.9032 11.3159 24.9064 11.31C24.9096 11.3041 24.9144 11.2993 24.9202 11.2961C24.9705 11.2699 25.0265 11.2565 25.0832 11.2572L25.1382 11.2515L25.2216 11.2354C25.4206 11.1984 25.6272 11.1596 25.829 11.1179C28.0522 10.6554 29.8092 9.98071 31.2022 9.07192C31.8798 8.62747 32.3953 8.16786 32.7772 7.6656C32.9566 7.43222 33.1065 7.17758 33.2235 6.90748C33.3153 6.67873 33.3848 6.44167 33.4311 6.19958L33.5088 5.8518L33.5391 5.87644C34.1475 6.38817 34.845 6.99372 35.4278 7.70256C36.0932 8.49423 36.6031 9.40445 36.9308 10.3854C37.2096 11.2482 37.3133 12.1581 37.2359 13.0615C37.1706 13.7658 36.9973 14.4559 36.7223 15.1075C36.431 15.7914 36.0513 16.434 35.5927 17.0189C35.0954 17.6512 34.5318 18.2285 33.9115 18.7408C33.2367 19.2989 32.514 19.7964 31.7518 20.2277C30.9188 20.6999 30.0511 21.1082 29.1562 21.4492C28.1959 21.8165 27.2119 22.1185 26.2109 22.3533C25.136 22.6049 24.0462 22.7885 22.9482 22.9029C22.6705 22.9323 22.3909 22.9579 22.1161 22.9778L21.0822 23.0555ZM24.9505 11.333C24.9509 11.3393 24.9509 11.3457 24.9505 11.352C24.9415 11.4266 24.9415 11.502 24.9505 11.5766C24.9505 11.6145 24.9562 11.6514 24.9572 11.6865L24.9657 12.1234C24.9814 13.0158 24.9454 13.9084 24.8577 14.7967C24.6444 17 24.1848 18.7986 23.4533 20.2931C23.1429 20.9574 22.7304 21.5691 22.2308 22.1059C21.9808 22.3555 21.7176 22.5914 21.4423 22.8129C21.3694 22.8735 21.2964 22.9342 21.2244 22.9958L22.1142 22.9294C22.3881 22.9086 22.6667 22.883 22.9444 22.8546C24.0402 22.7398 25.1277 22.5562 26.2005 22.3049C27.1987 22.0702 28.1801 21.7691 29.1382 21.4037C30.0322 21.0639 30.8992 20.6572 31.7319 20.1869C32.4919 19.7569 33.2124 19.2606 33.885 18.7038C34.503 18.1937 35.0641 17.6183 35.5586 16.9876C36.0152 16.4065 36.3931 15.7677 36.6825 15.0876C36.9552 14.4404 37.1271 13.7552 37.1923 13.0558C37.2691 12.1601 37.1664 11.258 36.89 10.4024C36.5646 9.42688 36.0576 8.52174 35.3956 7.73478C34.827 7.0411 34.1428 6.44597 33.5429 5.94088L33.4823 6.21285C33.4353 6.45787 33.3649 6.69779 33.2719 6.92928C33.1533 7.20187 33.0015 7.45875 32.8198 7.69403C32.4341 8.20008 31.9158 8.66443 31.2335 9.11551C29.8366 10.029 28.0683 10.7 25.8394 11.1662C25.6366 11.2079 25.431 11.2468 25.231 11.2837L25.1486 11.2998C25.1334 11.2998 25.1116 11.3046 25.088 11.3065C25.0418 11.3064 24.9961 11.3154 24.9534 11.333H24.9505ZM18.9187 23.0555L17.883 22.9778C16.7657 22.8956 15.6547 22.743 14.5567 22.521C13.5317 22.3145 12.5215 22.0403 11.5327 21.7003C10.6091 21.3831 9.71012 20.9979 8.84331 20.548C8.04846 20.1388 7.28955 19.6633 6.57463 19.1265C5.91709 18.6324 5.31186 18.0722 4.76841 17.4548C4.2684 16.8873 3.84177 16.2591 3.49855 15.5851C3.17842 14.9503 2.95484 14.2713 2.8352 13.5704C2.69583 12.7437 2.71416 11.898 2.88921 11.0781C3.106 10.0931 3.51674 9.16113 4.09747 8.33654C4.68993 7.49979 5.39536 6.74908 6.19367 6.10577L6.49692 5.85464L6.50545 5.89255L6.54525 6.08208C6.57558 6.23086 6.6078 6.38438 6.6476 6.53221C6.72151 6.80239 6.83249 7.06104 6.97738 7.30076C7.28253 7.81249 7.72792 8.28631 8.34105 8.74972C9.59195 9.69737 11.2437 10.4128 13.393 10.9416C13.7408 11.0269 14.098 11.098 14.4439 11.1672L14.8808 11.2563C14.8977 11.2594 14.9148 11.2616 14.932 11.2629C14.9832 11.2629 15.0337 11.2756 15.0789 11.2998C15.0921 11.3103 15.0997 11.3169 15.0988 11.3349C15.0982 11.3403 15.0982 11.3457 15.0988 11.351C15.1078 11.43 15.1078 11.5098 15.0988 11.5889C15.0988 11.6268 15.0931 11.6637 15.0921 11.6988C15.0751 12.6142 15.0921 13.3563 15.1319 14.0348C15.2769 16.2807 15.6778 18.1514 16.3572 19.7548C16.6439 20.4619 17.0286 21.1251 17.5001 21.725C17.8213 22.0971 18.176 22.4391 18.5596 22.7465L18.9187 23.0555ZM17.8858 22.9313L18.7775 22.9977L18.5264 22.7825C18.1401 22.4734 17.7832 22.1292 17.4603 21.7543C16.9863 21.1509 16.5993 20.4839 16.3108 19.7728C15.6294 18.1618 15.2267 16.2883 15.0789 14.0367C15.0343 13.3572 15.022 12.6152 15.0391 11.6969C15.0391 11.6609 15.0391 11.623 15.0457 11.5841C15.0547 11.5089 15.0547 11.4329 15.0457 11.3577C15.0457 11.3491 15.0457 11.3425 15.0457 11.3378C15.0069 11.3194 14.9645 11.3097 14.9215 11.3093L14.8656 11.3017L14.4288 11.2127C14.0829 11.1435 13.7256 11.0724 13.3759 10.9862C11.221 10.4564 9.56258 9.73717 8.30694 8.78667C7.68907 8.31948 7.23893 7.83902 6.93095 7.32445C6.78396 7.08071 6.67109 6.81798 6.59548 6.54358C6.55568 6.39385 6.52346 6.24033 6.49313 6.09061L6.46186 5.94088L6.21926 6.14367C5.42531 6.78417 4.72373 7.53136 4.13443 8.36402C3.55772 9.18371 3.1496 10.1098 2.93375 11.0885C2.75967 11.9025 2.74134 12.7421 2.87974 13.5628C3.00019 14.2595 3.22376 14.9344 3.54309 15.5652C3.88435 16.234 4.30809 16.8574 4.80442 17.4207C5.34615 18.0358 5.94948 18.5937 6.60496 19.0858C7.31751 19.6226 8.07422 20.0981 8.867 20.5072C9.73108 20.955 10.6268 21.3389 11.547 21.6558C12.534 21.9947 13.5423 22.2682 14.5652 22.4746C15.6615 22.6957 16.7705 22.8482 17.8858 22.9313ZM19.9905 19.5198C19.7432 19.519 19.4994 19.4602 19.2788 19.3483C18.9386 19.1767 18.6316 18.8943 18.3388 18.484C18.0231 18.0252 17.7713 17.5256 17.5901 16.999C17.14 15.7595 16.8946 14.3238 16.8405 12.6104C16.8339 12.3991 16.8301 12.185 16.8301 11.9717C16.8301 11.9594 16.8206 11.6476 16.8216 11.5605V11.5349H16.8472C18.5976 11.6901 20.3571 11.7161 22.1114 11.6126C22.3957 11.5946 22.6894 11.5699 22.9709 11.5462L23.132 11.532V11.5576C23.1472 13.1591 23.0278 14.4678 22.7529 15.6752C22.617 16.3098 22.4186 16.9294 22.1607 17.525C21.9615 17.9999 21.6869 18.4396 21.3476 18.827C21.0885 19.1339 20.7452 19.3583 20.3601 19.4724C20.2395 19.5041 20.1153 19.5201 19.9905 19.5198ZM19.2997 19.3056C19.623 19.4721 19.9959 19.5152 20.3487 19.4269C20.726 19.315 21.0625 19.0957 21.3172 18.7958C21.6524 18.4116 21.9237 17.9761 22.1209 17.506C22.3777 16.9142 22.5751 16.2984 22.7103 15.6676C22.9794 14.4697 23.0979 13.1724 23.0846 11.587L22.9756 11.5965C22.6913 11.6202 22.4014 11.6438 22.1142 11.6628C20.3663 11.766 18.6132 11.7407 16.869 11.587C16.869 11.6969 16.8775 11.966 16.8775 11.9708C16.8775 12.184 16.8775 12.3982 16.8879 12.6095C16.9419 14.3153 17.1864 15.7481 17.6347 16.9829C17.8145 17.5055 18.0644 18.0012 18.3776 18.4565C18.6619 18.8602 18.9671 19.1379 19.2997 19.3094V19.3056ZM19.8617 9.35526C19.2154 9.35526 18.5965 9.33821 17.9986 9.3022C17.7702 9.28893 17.539 9.27187 17.3153 9.25576L17.0822 9.2387L17.0869 9.21312C17.2262 8.42278 17.3987 7.58031 17.72 6.77576C18.0602 5.92287 18.4449 5.35428 18.9301 4.97522C19.3983 4.61037 19.9612 4.49381 20.4748 4.65397C20.9884 4.81412 21.4537 5.23393 21.8527 5.89918C22.3094 6.66204 22.6278 7.60495 22.8543 8.87007L22.9178 9.2406H22.8913C21.81 9.31831 20.8065 9.35621 19.8617 9.35621V9.35526ZM17.1381 9.19606L17.3182 9.20933C17.5418 9.22544 17.774 9.24249 18.0014 9.25576C19.6212 9.34162 21.2448 9.32168 22.8619 9.19606L22.8079 8.87765C22.5824 7.61917 22.2658 6.68004 21.8119 5.92287C21.4196 5.2671 20.9647 4.85582 20.4606 4.69851C19.9564 4.5412 19.4182 4.65681 18.9595 5.01123C18.4809 5.38461 18.1009 5.9513 17.7636 6.79471C17.448 7.586 17.2755 8.41804 17.1381 9.19606ZM24.6871 9.02643V9.00274C24.4322 7.44006 24.1062 6.2157 23.6598 5.14864C23.1235 3.86457 22.4933 2.94156 21.7352 2.32653C21.558 2.18344 21.3807 2.04224 21.2026 1.90009L20.8823 1.64422L21.9512 1.70961C23.4747 1.78661 24.988 2.00198 26.4725 2.35307C27.386 2.57861 28.5668 2.92166 29.5997 3.57175C30.554 4.17351 31.0335 4.87951 30.9861 5.61394C30.9302 6.46682 30.2527 7.18704 28.9146 7.8286C27.6011 8.45784 26.1711 8.76203 24.9458 8.97715L24.6871 9.02643ZM21.0235 1.70014L21.2272 1.86313C21.4044 2.00528 21.5826 2.14743 21.7589 2.28958C22.5236 2.90934 23.1585 3.83899 23.6977 5.13253C24.1431 6.19674 24.4691 7.41827 24.7241 8.97241L24.9354 8.93546C26.1579 8.72129 27.5841 8.41804 28.8918 7.79164C30.1996 7.16524 30.8819 6.44692 30.9369 5.61204C30.9842 4.88519 30.5246 4.21331 29.5722 3.6125C28.545 2.96525 27.3689 2.62504 26.4592 2.40045C24.9765 2.04817 23.4647 1.83184 21.9427 1.75415L21.0235 1.70014ZM15.3082 9.02643H15.2845C14.0109 8.7971 12.9542 8.56587 11.926 8.18491C11.1584 7.90062 10.1947 7.48176 9.54268 6.76344C9.05653 6.22612 8.89353 5.56182 9.10581 4.98659C9.24701 4.58763 9.53699 4.22089 9.99281 3.86552C10.512 3.47616 11.0846 3.16369 11.6929 2.93777C13.1599 2.35402 14.8789 1.99012 17.1049 1.78448C17.6508 1.73425 18.208 1.70203 18.7463 1.67076L19.1206 1.64896L18.3066 2.29905C17.9419 2.59602 17.6187 2.94057 17.3456 3.32346C16.669 4.255 16.145 5.43388 15.7451 6.92454C15.565 7.59737 15.4437 8.26262 15.3139 9.00084L15.3082 9.02643ZM18.9728 1.70203L18.7472 1.7153C18.209 1.74657 17.6527 1.77879 17.1068 1.82807C14.8865 2.03181 13.1712 2.39666 11.7052 2.97947C11.1015 3.20383 10.5331 3.51371 10.0174 3.89964C9.56921 4.24932 9.28397 4.60943 9.14561 4.99986C8.93618 5.56845 9.09254 6.19674 9.573 6.72932C10.2184 7.4429 11.1755 7.85798 11.9374 8.14038C12.9571 8.51944 14.0061 8.74592 15.2665 8.97052C15.3944 8.24177 15.5157 7.58221 15.6948 6.91411C16.0966 5.41303 16.6226 4.22847 17.3058 3.29314C17.5815 2.90657 17.9075 2.55855 18.2753 2.2583L18.9728 1.70203Z" fill="#F5F5F5"/>
</svg>
