<svg width="300" height="302" viewBox="0 0 300 302" fill="none" xmlns="http://www.w3.org/2000/svg">
<path fill-rule="evenodd" clip-rule="evenodd" d="M218.728 180.641C214.995 178.773 196.645 169.745 193.224 168.498C189.803 167.252 187.315 166.631 184.827 170.366C182.339 174.102 175.186 182.51 173.009 185C170.832 187.491 168.654 187.804 164.923 185.934C161.19 184.067 149.164 180.126 134.908 167.409C123.813 157.513 116.322 145.291 114.145 141.554C111.968 137.818 113.913 135.798 115.781 133.937C117.461 132.265 119.514 129.578 121.38 127.398C123.247 125.22 123.868 123.662 125.112 121.172C126.356 118.68 125.735 116.501 124.801 114.633C123.868 112.765 116.404 94.3939 113.294 86.9197C110.264 79.643 107.187 80.6285 104.896 80.5131C102.722 80.4053 100.23 80.3824 97.7432 80.3824C95.2553 80.3824 91.2111 81.3164 87.7898 85.0518C84.3691 88.7883 74.7275 97.8188 74.7275 116.188C74.7275 134.561 88.101 152.307 89.9672 154.798C91.8334 157.29 116.285 194.988 153.727 211.154C162.63 215 169.583 217.297 175.003 219.016C183.944 221.858 192.08 221.457 198.512 220.495C205.682 219.425 220.593 211.467 223.704 202.75C226.813 194.03 226.813 186.557 225.881 185C224.948 183.444 222.46 182.51 218.728 180.641V180.641ZM150.628 273.625H150.577C128.299 273.616 106.448 267.631 87.3867 256.32L82.8527 253.629L35.8641 265.955L48.4061 220.141L45.4547 215.443C33.0264 195.677 26.4621 172.83 26.4721 149.371C26.4996 80.9191 82.1947 25.2287 150.677 25.2287C183.838 25.2398 215.01 38.1709 238.451 61.6383C261.891 85.1051 274.792 116.298 274.779 149.471C274.751 217.929 219.057 273.625 150.628 273.625V273.625ZM256.291 43.8064C228.089 15.5725 190.585 0.0164063 150.626 0C68.2934 0 1.28496 67.0043 1.25156 149.362C1.24102 175.689 8.11875 201.385 21.191 224.038L0 301.442L79.1842 280.671C101.002 292.571 125.566 298.843 150.567 298.852H150.628C232.952 298.852 299.966 231.84 300 149.481C300.015 109.569 284.492 72.0404 256.291 43.8064" fill="#A7A7A7"/>
</svg>
